<?xml version="1.0" encoding="UTF-8" standalone="no"?><svg viewBox="0 0 800 800" xmlns="http://www.w3.org/2000/svg" xmlns:xlink="http://www.w3.org/1999/xlink"><style>:root>svg{display:none}:root>svg:target{display:block}</style><svg viewBox="0 0 800 800" id="1618744571swords-and-shield" xmlns="http://www.w3.org/2000/svg"><defs><clipPath clipPathUnits="userSpaceOnUse" id="aa"><path d="M0 600h600V0H0z"/></clipPath><clipPath clipPathUnits="userSpaceOnUse" id="ab"><path d="M331.524 472.525c3.18-9.389 7.163-19.671 8.62-21.417.149-.014.382-.027.726-.027 3.466 0 9.577 1.301 12.213 4.891 1.496 2.034 1.747 4.686.747 7.881l-.496 1.58-5.629-3.238c.444-1.418.469-2.406.079-2.941-.783-1.063-3.055-1.957-5.269-2.375-1.304 2.914-3.159 7.745-4.928 12.707a168.426 168.426 0 0012.296 4.751l8.917-5.757-3.272-1.884 15.524-16.97 20.402-11.721-.03-.054 19.218-6.763.418 4.089 8.776-5.498c.583-5.356.831-9.851.932-13.152-4.265-.418-9.768-.885-13.594-.942-.503 1.95-.784 4.378-.123 5.71.116.23.466.93 2.722 1.238l.567 5.562-.484-.066c-3.759-.513-6.117-2.107-7.209-4.872-1.862-4.715.567-11.423 1.486-12.924.323-.073 1.163-.199 3.133-.199 5.822 0 16.148 1.082 19.926 1.502.041 3.061-.022 10.886-1.323 21.429l-33.744 21.134-40.642 26.247c-10.116-3.317-17.212-6.585-19.959-7.921m48.064-24.819l-16.655 18.207 25.418-16.414 17.781-11.135z"/></clipPath><clipPath clipPathUnits="userSpaceOnUse" id="ac"><path d="M331.669 480.458h95.71V410.17h-95.71z"/></clipPath><clipPath clipPathUnits="userSpaceOnUse" id="ae"><path d="M249.155 216.071l.62.872z"/></clipPath><clipPath clipPathUnits="userSpaceOnUse" id="af"><path d="M249.018 216.798h.62v-.873h-.62z"/></clipPath><clipPath clipPathUnits="userSpaceOnUse" id="ah"><path d="M358.744 428.828l-9.235-13.819c5.92-2.855 12.039-4.927 18.472-5.307l5.746 9.666 3.908 6.648-14.965 8.597z"/></clipPath><clipPath clipPathUnits="userSpaceOnUse" id="ai"><path d="M349.71 434.811h28.127v-24.898H349.71z"/></clipPath><clipPath clipPathUnits="userSpaceOnUse" id="ak"><path d="M213.345 198.835c-10.439-20.219-20.496-40.675-29.301-61.916l2.256-1.415c15.281 17.179 29.325 35.133 42.995 53.319a1423.216 1423.216 0 0119.36 26.55l-5.718 6.946-29.702-42.949 27.782 45.281-8.309 10.093c-6.614-11.869-13.086-23.827-19.363-35.909"/></clipPath><clipPath clipPathUnits="userSpaceOnUse" id="al"><path d="M183.811 234.487h64.611v-99.214h-64.611z"/></clipPath><clipPath clipPathUnits="userSpaceOnUse" id="an"><path d="M232.319 431.637l10.575-16.258a49.328 49.328 0 017.133 2.199l-7.518 11.25-4.23 6.233z"/></clipPath><clipPath clipPathUnits="userSpaceOnUse" id="ao"><path d="M232.248 434.998h17.707v-19.68h-17.707z"/></clipPath><clipPath clipPathUnits="userSpaceOnUse" id="aq"><path d="M356.835 233.047l33.23-53.677-35.146 51.258-6.922-8.73c7.829-11.123 15.798-22.159 23.96-33.075 13.67-18.186 27.713-36.14 42.992-53.319l2.259 1.415c-8.805 21.241-18.863 41.697-29.304 61.916a1400.222 1400.222 0 01-23.645 43.575z"/></clipPath><clipPath clipPathUnits="userSpaceOnUse" id="ar"><path d="M347.727 242.034h69.21V135.127h-69.21z"/></clipPath><clipPath clipPathUnits="userSpaceOnUse" id="at"><path d="M223.342 426.481l4.184-7.113 3.103-5.222c.258-.003.524-.017.78-.017 2.826 0 5.454.219 7.938.591l-9.922 15.256z"/></clipPath><clipPath clipPathUnits="userSpaceOnUse" id="au"><path d="M223.477 430.118h16.004v-15.847h-16.004z"/></clipPath><clipPath clipPathUnits="userSpaceOnUse" id="aw"><path d="M270.622 423.633c-9.961-6.796-21.25-14.499-39.213-14.499-6.475 0-13.292.976-20.748 2.975V321.33c0-34.472 24.42-71.884 38.979-91.117 20.889-27.603 41.914-45.351 45.946-45.432 3.964.135 24.953 18.358 46.001 46.542 14.539 19.466 38.93 57.046 38.93 90.007v84.637a42.256 42.256 0 00-10.433-1.332c-14.617 0-27.089 7.773-39.151 15.288-11.715 7.3-22.779 14.196-35.344 14.196-9.598 0-16.72-4.86-24.967-10.486m3.908-5.732c8.434 5.756 13.962 9.282 21.059 9.282 10.579 0 20.826-6.386 31.674-13.145 12.523-7.805 26.737-16.606 43.77-16.331l2.545.049V321.33c0-21.905-12.337-51.039-34.739-82.033-18.449-25.526-35.49-41.19-41.925-45.906l-1.426-1.046-1.46.998c-17.8 12.159-76.429 75.829-76.429 127.987v82.079l2.85-.409a77.766 77.766 0 0110.96-.804c20.104 0 32.865 8.709 43.121 15.705"/></clipPath><clipPath clipPathUnits="userSpaceOnUse" id="ax"><path d="M210.473 434.04h169.854V184.701H210.473z"/></clipPath><clipPath clipPathUnits="userSpaceOnUse" id="az"><path d="M277.347 413.776c-10.825-7.384-24.293-16.575-45.938-16.575-2.871 0-5.826.167-8.815.493V321.33c0-48.98 55.609-109.772 72.802-122.812 7.073 5.61 22.561 20.415 39.394 43.706 21.793 30.149 33.793 58.243 33.793 79.106v71.394c-17.341.484-31.462 9.284-43.96 17.073-10.227 6.372-19.884 12.39-29.034 12.39-5.641 0-10.369-3.039-18.242-8.411m18.627.686v-.081c18.037-3.472 41.721-26.722 63.492-26.998.555-52.454 1.978-75.543 1.978-75.543-7.234-25.133-16.731-53.611-65.47-102.232v-.388l-.192.194a35.21 35.21 0 01-.193-.194v.388c-48.738 48.621-58.237 77.099-65.469 102.232 0 0 1.424 23.089 1.978 75.543 21.771.276 45.454 23.526 63.491 26.998v.081c.063-.011.129-.029.192-.041.064.012.13.03.193.041"/></clipPath><clipPath clipPathUnits="userSpaceOnUse" id="aA"><path d="M222.327 421.784h145.99V198.176h-145.99z"/></clipPath><clipPath clipPathUnits="userSpaceOnUse" id="aC"><path d="M271.485 399.468c-11.763-6.884-23.892-13.984-36.091-15.227-.521-45.405-1.702-68.2-1.917-72.024 6.271-21.79 14.29-48.752 59.167-94.892v192.86c-6.373-2.063-13.592-6.289-21.159-10.717"/></clipPath><clipPath clipPathUnits="userSpaceOnUse" id="aD"><path d="M233.564 410.237h59.167v-192.86h-59.167z"/></clipPath><clipPath clipPathUnits="userSpaceOnUse" id="aF"><path d="M226.095 440.072l-12.249-4.312 4.705-8.193 19.199 11.032-5.016 8.73z"/></clipPath><clipPath clipPathUnits="userSpaceOnUse" id="aG"><path d="M213.851 447.35h23.905v-19.755H213.85z"/></clipPath><clipPath clipPathUnits="userSpaceOnUse" id="aI"><path d="M209.36 454.213l-33.763-21.148c-1.3-10.543-1.365-18.368-1.323-21.429 3.778-.42 14.102-1.502 19.928-1.502 1.969 0 2.809.126 3.133.199.913 1.489 3.347 8.204 1.485 12.922-1.093 2.766-3.451 4.361-7.208 4.874l-1.328.182.577-5.678c2.258-.308 2.608-1.008 2.722-1.238.663-1.332.381-3.76-.121-5.71-3.826.057-9.33.524-13.593.942.099 3.301.347 7.796.929 13.152l8.778 5.498.444-4.372 34.182 12.03 21.45 23.448-3.817 2.197 8.916 5.757a168.117 168.117 0 0012.297-4.751c-1.769-4.962-3.623-9.793-4.926-12.707-2.215.418-4.486 1.312-5.269 2.375-.393.535-.367 1.523.078 2.941l-4.924 2.834-.371-1.176c-1-3.195-.748-5.847.746-7.881 2.637-3.59 8.75-4.891 12.215-4.891.341 0 .576.013.726.027 1.458 1.747 5.438 12.028 8.62 21.416-2.753 1.338-9.86 4.61-19.959 7.922zm2.925-4.714l25.418 16.414-16.656-18.207-26.543-9.342z"/></clipPath><clipPath clipPathUnits="userSpaceOnUse" id="aJ"><path d="M173.918 480.045h95.713v-70.287h-95.713z"/></clipPath><clipPath clipPathUnits="userSpaceOnUse" id="aL"><path d="M248.166 467.701l7.787-4.481c.585 1.46 1.224 3.124 1.88 4.885a168.803 168.803 0 01-5.701 2.158z"/></clipPath><clipPath clipPathUnits="userSpaceOnUse" id="aM"><path d="M248.229 470.341h9.667v-7.043h-9.667z"/></clipPath><clipPath clipPathUnits="userSpaceOnUse" id="aO"><path d="M186.023 428.149a170.956 170.956 0 01-.473-6.085c1.765-.148 3.537-.279 5.172-.374l-.899 8.838z"/></clipPath><clipPath clipPathUnits="userSpaceOnUse" id="aP"><path d="M185.561 430.537h5.172V421.7h-5.172z"/></clipPath><clipPath clipPathUnits="userSpaceOnUse" id="aR"><path d="M344.75 468.186a231.677 231.677 0 011.878-4.884l7.788 4.482-3.965 2.559a166.792 166.792 0 01-5.701-2.157"/></clipPath><clipPath clipPathUnits="userSpaceOnUse" id="aS"><path d="M344.628 470.217h9.666v-7.04h-9.666z"/></clipPath><clipPath clipPathUnits="userSpaceOnUse" id="aU"><path d="M412.342 420.399c1.636.092 3.406.224 5.174.372a171.36 171.36 0 01-.477 6.084l-3.798 2.381z"/></clipPath><clipPath clipPathUnits="userSpaceOnUse" id="aV"><path d="M412.541 429.444h5.173v-8.837h-5.173z"/></clipPath><clipPath clipPathUnits="userSpaceOnUse" id="aX"><path d="M150.9 537.392c0-7.574 6.163-13.737 13.739-13.737 7.574 0 13.738 6.163 13.738 13.737 0 7.575-6.164 13.739-13.738 13.739-7.576 0-13.739-6.164-13.739-13.739m3.691 0c0 5.55 4.497 10.049 10.048 10.049 5.548 0 10.047-4.499 10.047-10.049 0-5.549-4.499-10.048-10.047-10.048-5.551 0-10.048 4.499-10.048 10.048"/></clipPath><clipPath clipPathUnits="userSpaceOnUse" id="aY"><path d="M151.18 551.442h27.477v-27.476H151.18z"/></clipPath><clipPath clipPathUnits="userSpaceOnUse" id="aaa"><path d="M362.42 438.599l19.199-11.032 5.289 9.209-19.198 11.03z"/></clipPath><clipPath clipPathUnits="userSpaceOnUse" id="aab"><path d="M362.364 447.762h24.488v-20.235h-24.488z"/></clipPath><clipPath clipPathUnits="userSpaceOnUse" id="aad"><path d="M432.257 537.392c0-8.033 6.536-14.571 14.57-14.571 8.035 0 14.571 6.538 14.571 14.571 0 8.035-6.536 14.571-14.571 14.571-8.034 0-14.57-6.536-14.57-14.571m4.523 0c0 5.55 4.498 10.049 10.047 10.049 5.551 0 10.049-4.499 10.049-10.049 0-5.549-4.498-10.048-10.049-10.048-5.549 0-10.047 4.499-10.047 10.048"/></clipPath><clipPath clipPathUnits="userSpaceOnUse" id="aae"><path d="M432.052 551.736h29.14v-29.142h-29.14z"/></clipPath><clipPath clipPathUnits="userSpaceOnUse" id="aag"><path d="M181.352 526.065l-1.484-.832-17.474-9.793-1.454-.815-.194-.109.736-1.497.217.122 1.454.815 17.835 9.997 1.484.83.307.172-1.158 1.261z"/></clipPath><clipPath clipPathUnits="userSpaceOnUse" id="aah"><path d="M160.533 525.982h22.034v-13.197h-22.034z"/></clipPath><clipPath clipPathUnits="userSpaceOnUse" id="aaj"><path d="M190.03 515.625l-1.46-.838-19.765-11.342-1.444-.829-.091-.052.837-1.439.07.041 1.445.829 19.988 11.469 1.459.838.179.103-1.006 1.342z"/></clipPath><clipPath clipPathUnits="userSpaceOnUse" id="aak"><path d="M167.331 515.81h23.978v-14.617h-23.978z"/></clipPath><clipPath clipPathUnits="userSpaceOnUse" id="aam"><path d="M198.197 504.926l-1.444-.849-21.038-12.356-1.436-.845-.254-.149.881-1.413.254.149 1.436.844 21.148 12.421 1.443.848.324.19-1.028 1.327z"/></clipPath><clipPath clipPathUnits="userSpaceOnUse" id="aan"><path d="M173.795 504.85h25.486v-15.779h-25.486z"/></clipPath><clipPath clipPathUnits="userSpaceOnUse" id="aap"><path d="M205.927 493.991l-1.43-.861-21.412-12.871-1.429-.858-.274-.166.95-1.371.249.149 1.429.859 21.427 12.88 1.428.857.304.184-.894 1.406z"/></clipPath><clipPath clipPathUnits="userSpaceOnUse" id="aaq"><path d="M181.486 494.296h25.787V477.97h-25.787z"/></clipPath><clipPath clipPathUnits="userSpaceOnUse" id="aas"><path d="M213.249 482.817l-1.419-.872-20.966-12.894-1.421-.874-.246-.151 1-1.34.226.138 1.425.876 20.861 12.831 1.417.873.537.33-.826 1.445z"/></clipPath><clipPath clipPathUnits="userSpaceOnUse" id="aat"><path d="M189.032 482.991h25.466v-16.493h-25.466z"/></clipPath><clipPath clipPathUnits="userSpaceOnUse" id="aav"><path d="M220.152 471.389l-1.41-.888-19.669-12.378-1.417-.89-.161-.101 1.028-1.321.168.105 1.418.892 19.465 12.25 1.411.887.154.096-.845 1.436z"/></clipPath><clipPath clipPathUnits="userSpaceOnUse" id="aaw"><path d="M197.226 471.212h23.644v-15.66h-23.644z"/></clipPath><clipPath clipPathUnits="userSpaceOnUse" id="aay"><path d="M419.306 525.853l.416-.234 1.485-.833 17.601-9.865 1.453-.814.17-.094.808 1.454-.218.122-1.455.815-17.241 9.664-1.485.83-.438.247z"/></clipPath><clipPath clipPathUnits="userSpaceOnUse" id="aaz"><path d="M419.537 527.387h21.935v-13.132h-21.935z"/></clipPath><clipPath clipPathUnits="userSpaceOnUse" id="aaB"><path d="M410.528 515.497l.557-.319 1.458-.838 19.844-11.388 1.445-.828.33-.189.882 1.415-.401.23-1.446.829-19.604 11.249-1.462.84-.586.338z"/></clipPath><clipPath clipPathUnits="userSpaceOnUse" id="aaC"><path d="M410.333 516.631h24.516v-14.895h-24.516z"/></clipPath><clipPath clipPathUnits="userSpaceOnUse" id="aaE"><path d="M402.457 504.772l.488-.287 1.443-.848 21.076-12.378 1.435-.844.43-.252.794 1.464-.345.202-1.435.843-20.963 12.313-1.443.848-.533.312z"/></clipPath><clipPath clipPathUnits="userSpaceOnUse" id="aaF"><path d="M402.339 506.002h25.666V490.02h-25.666z"/></clipPath><clipPath clipPathUnits="userSpaceOnUse" id="aaH"><path d="M394.952 493.731l.289-.174 1.428-.859 21.422-12.877 1.427-.859.32-.192.956 1.37-.349.209-1.429.86-21.4 12.865-1.429.859-.331.198z"/></clipPath><clipPath clipPathUnits="userSpaceOnUse" id="aaI"><path d="M395.17 495.354h25.842v-16.357H395.17z"/></clipPath><clipPath clipPathUnits="userSpaceOnUse" id="aaK"><path d="M387.748 482.515l.203-.125 1.419-.872 20.938-12.88 1.421-.874.294-.182 1.012 1.333-.338.208-1.422.874-21.018 12.928-1.418.872-.238.146z"/></clipPath><clipPath clipPathUnits="userSpaceOnUse" id="aaL"><path d="M387.666 483.86h25.287v-16.355h-25.287z"/></clipPath><clipPath clipPathUnits="userSpaceOnUse" id="aaN"><path d="M380.813 471.129l.258-.163 1.409-.887 19.61-12.339 1.418-.892.263-.166 1.081 1.29-.308.192-1.417.892-19.811 12.466-1.412.889-.213.133z"/></clipPath><clipPath clipPathUnits="userSpaceOnUse" id="aaO"><path d="M380.924 472.65h24.038v-15.862h-24.038z"/></clipPath><linearGradient x1="0" y1="0" x2="1" y2="0" gradientUnits="userSpaceOnUse" gradientTransform="matrix(95.6758 0 0 -95.6758 331.669 445.327)" spreadMethod="pad" id="ad"><stop offset="0" stop-color="#fff"/><stop offset="1" stop-color="#231f20"/></linearGradient><linearGradient x1="0" y1="0" x2="1" y2="0" gradientUnits="userSpaceOnUse" gradientTransform="matrix(.6201 0 0 -.6201 249.018 216.361)" spreadMethod="pad" id="ag"><stop offset="0" stop-color="#fff"/><stop offset="1" stop-color="#231f20"/></linearGradient><linearGradient x1="0" y1="0" x2="1" y2="0" gradientUnits="userSpaceOnUse" gradientTransform="matrix(28.126 0 0 -28.126 349.71 422.369)" spreadMethod="pad" id="aj"><stop offset="0" stop-color="#fff"/><stop offset="1" stop-color="#231f20"/></linearGradient><linearGradient x1="0" y1="0" x2="1" y2="0" gradientUnits="userSpaceOnUse" gradientTransform="matrix(64.6113 0 0 -64.6113 183.811 184.892)" spreadMethod="pad" id="am"><stop offset="0" stop-color="#fff"/><stop offset="1" stop-color="#231f20"/></linearGradient><linearGradient x1="0" y1="0" x2="1" y2="0" gradientUnits="userSpaceOnUse" gradientTransform="matrix(17.708 0 0 -17.708 232.248 425.158)" spreadMethod="pad" id="ap"><stop offset="0" stop-color="#fff"/><stop offset="1" stop-color="#231f20"/></linearGradient><linearGradient x1="0" y1="0" x2="1" y2="0" gradientUnits="userSpaceOnUse" gradientTransform="matrix(69.2109 0 0 -69.2109 347.727 188.58)" spreadMethod="pad" id="as"><stop offset="0" stop-color="#fff"/><stop offset="1" stop-color="#231f20"/></linearGradient><linearGradient x1="0" y1="0" x2="1" y2="0" gradientUnits="userSpaceOnUse" gradientTransform="matrix(16.0049 0 0 -16.0049 223.477 422.195)" spreadMethod="pad" id="av"><stop offset="0" stop-color="#fff"/><stop offset="1" stop-color="#231f20"/></linearGradient><linearGradient x1="0" y1="0" x2="1" y2="0" gradientUnits="userSpaceOnUse" gradientTransform="matrix(169.85449 0 0 -169.85449 210.473 309.37)" spreadMethod="pad" id="ay"><stop offset="0" stop-color="#fff"/><stop offset="1" stop-color="#231f20"/></linearGradient><linearGradient x1="0" y1="0" x2="1" y2="0" gradientUnits="userSpaceOnUse" gradientTransform="matrix(145.9902 0 0 -145.9902 222.327 310.01)" spreadMethod="pad" id="aB"><stop offset="0" stop-color="#fff"/><stop offset="1" stop-color="#231f20"/></linearGradient><linearGradient x1="0" y1="0" x2="1" y2="0" gradientUnits="userSpaceOnUse" gradientTransform="matrix(59.167 0 0 -59.167 233.564 313.808)" spreadMethod="pad" id="aE"><stop offset="0" stop-color="#fff"/><stop offset="1" stop-color="#231f20"/></linearGradient><linearGradient x1="0" y1="0" x2="1" y2="0" gradientUnits="userSpaceOnUse" gradientTransform="matrix(23.9043 0 0 -23.9043 213.851 437.476)" spreadMethod="pad" id="aH"><stop offset="0" stop-color="#fff"/><stop offset="1" stop-color="#231f20"/></linearGradient><linearGradient x1="0" y1="0" x2="1" y2="0" gradientUnits="userSpaceOnUse" gradientTransform="matrix(95.6772 0 0 -95.6772 173.952 444.914)" spreadMethod="pad" id="aK"><stop offset="0" stop-color="#fff"/><stop offset="1" stop-color="#231f20"/></linearGradient><linearGradient x1="0" y1="0" x2="1" y2="0" gradientUnits="userSpaceOnUse" gradientTransform="matrix(9.667 0 0 -9.667 248.229 466.82)" spreadMethod="pad" id="aN"><stop offset="0" stop-color="#fff"/><stop offset="1" stop-color="#231f20"/></linearGradient><linearGradient x1="0" y1="0" x2="1" y2="0" gradientUnits="userSpaceOnUse" gradientTransform="matrix(5.1709 0 0 -5.1709 185.561 426.119)" spreadMethod="pad" id="aQ"><stop offset="0" stop-color="#fff"/><stop offset="1" stop-color="#231f20"/></linearGradient><linearGradient x1="0" y1="0" x2="1" y2="0" gradientUnits="userSpaceOnUse" gradientTransform="matrix(9.666 0 0 -9.666 344.628 466.697)" spreadMethod="pad" id="aT"><stop offset="0" stop-color="#fff"/><stop offset="1" stop-color="#231f20"/></linearGradient><linearGradient x1="0" y1="0" x2="1" y2="0" gradientUnits="userSpaceOnUse" gradientTransform="matrix(5.1719 0 0 -5.1719 412.541 425.025)" spreadMethod="pad" id="aW"><stop offset="0" stop-color="#fff"/><stop offset="1" stop-color="#231f20"/></linearGradient><linearGradient x1="0" y1="0" x2="1" y2="0" gradientUnits="userSpaceOnUse" gradientTransform="matrix(27.4766 0 0 -27.4766 151.18 537.704)" spreadMethod="pad" id="aZ"><stop offset="0" stop-color="#fff"/><stop offset="1" stop-color="#231f20"/></linearGradient><linearGradient x1="0" y1="0" x2="1" y2="0" gradientUnits="userSpaceOnUse" gradientTransform="matrix(24.4873 0 0 -24.4873 362.364 437.647)" spreadMethod="pad" id="aac"><stop offset="0" stop-color="#fff"/><stop offset="1" stop-color="#231f20"/></linearGradient><linearGradient x1="0" y1="0" x2="1" y2="0" gradientUnits="userSpaceOnUse" gradientTransform="matrix(29.1406 0 0 -29.1406 432.052 537.166)" spreadMethod="pad" id="aaf"><stop offset="0" stop-color="#fff"/><stop offset="1" stop-color="#231f20"/></linearGradient><linearGradient x1="0" y1="0" x2="1" y2="0" gradientUnits="userSpaceOnUse" gradientTransform="matrix(22.0322 0 0 -22.0322 160.533 519.384)" spreadMethod="pad" id="aai"><stop offset="0" stop-color="#fff"/><stop offset="1" stop-color="#231f20"/></linearGradient><linearGradient x1="0" y1="0" x2="1" y2="0" gradientUnits="userSpaceOnUse" gradientTransform="matrix(23.9795 0 0 -23.9795 167.33 508.504)" spreadMethod="pad" id="aal"><stop offset="0" stop-color="#fff"/><stop offset="1" stop-color="#231f20"/></linearGradient><linearGradient x1="0" y1="0" x2="1" y2="0" gradientUnits="userSpaceOnUse" gradientTransform="matrix(25.4863 0 0 -25.4863 173.795 496.96)" spreadMethod="pad" id="aao"><stop offset="0" stop-color="#fff"/><stop offset="1" stop-color="#231f20"/></linearGradient><linearGradient x1="0" y1="0" x2="1" y2="0" gradientUnits="userSpaceOnUse" gradientTransform="matrix(25.7881 0 0 -25.7881 181.485 486.137)" spreadMethod="pad" id="aar"><stop offset="0" stop-color="#fff"/><stop offset="1" stop-color="#231f20"/></linearGradient><linearGradient x1="0" y1="0" x2="1" y2="0" gradientUnits="userSpaceOnUse" gradientTransform="matrix(25.4658 0 0 -25.4658 189.032 474.745)" spreadMethod="pad" id="aau"><stop offset="0" stop-color="#fff"/><stop offset="1" stop-color="#231f20"/></linearGradient><linearGradient x1="0" y1="0" x2="1" y2="0" gradientUnits="userSpaceOnUse" gradientTransform="matrix(23.6445 0 0 -23.6445 197.226 463.385)" spreadMethod="pad" id="aax"><stop offset="0" stop-color="#fff"/><stop offset="1" stop-color="#231f20"/></linearGradient><linearGradient x1="0" y1="0" x2="1" y2="0" gradientUnits="userSpaceOnUse" gradientTransform="matrix(21.9346 0 0 -21.9346 419.537 520.821)" spreadMethod="pad" id="aaA"><stop offset="0" stop-color="#fff"/><stop offset="1" stop-color="#231f20"/></linearGradient><linearGradient x1="0" y1="0" x2="1" y2="0" gradientUnits="userSpaceOnUse" gradientTransform="matrix(24.5156 0 0 -24.5156 410.333 509.186)" spreadMethod="pad" id="aaD"><stop offset="0" stop-color="#fff"/><stop offset="1" stop-color="#231f20"/></linearGradient><linearGradient x1="0" y1="0" x2="1" y2="0" gradientUnits="userSpaceOnUse" gradientTransform="matrix(25.666 0 0 -25.666 402.339 498.012)" spreadMethod="pad" id="aaG"><stop offset="0" stop-color="#fff"/><stop offset="1" stop-color="#231f20"/></linearGradient><linearGradient x1="0" y1="0" x2="1" y2="0" gradientUnits="userSpaceOnUse" gradientTransform="matrix(25.8428 0 0 -25.8428 395.17 487.177)" spreadMethod="pad" id="aaJ"><stop offset="0" stop-color="#fff"/><stop offset="1" stop-color="#231f20"/></linearGradient><linearGradient x1="0" y1="0" x2="1" y2="0" gradientUnits="userSpaceOnUse" gradientTransform="matrix(25.2871 0 0 -25.2871 387.666 475.686)" spreadMethod="pad" id="aaM"><stop offset="0" stop-color="#fff"/><stop offset="1" stop-color="#231f20"/></linearGradient><linearGradient x1="0" y1="0" x2="1" y2="0" gradientUnits="userSpaceOnUse" gradientTransform="matrix(24.0381 0 0 -24.0381 380.923 464.719)" spreadMethod="pad" id="aaP"><stop offset="0" stop-color="#fff"/><stop offset="1" stop-color="#231f20"/></linearGradient></defs><g clip-path="url(#aa)" transform="matrix(1.33333 0 0 -1.33333 0 800)"><g clip-path="url(#ab)"><g clip-path="url(#ac)"><path d="M331.669 480.458h95.709v-70.287h-95.709z" fill="url(#ad)"/></g></g><g clip-path="url(#ae)"><g clip-path="url(#af)"><path d="M249.018 216.798h.62v-.873h-.62z" fill="url(#ag)"/></g></g><g clip-path="url(#ah)"><g clip-path="url(#ai)"><path d="M349.71 434.811h28.126v-24.898H349.71z" fill="url(#aj)"/></g></g><g clip-path="url(#ak)"><g clip-path="url(#al)"><path d="M183.811 234.487h64.611v-99.214h-64.611z" fill="url(#am)"/></g></g><g clip-path="url(#an)"><g clip-path="url(#ao)"><path d="M232.248 434.998h17.708v-19.68h-17.708z" fill="url(#ap)"/></g></g><g clip-path="url(#aq)"><g clip-path="url(#ar)"><path d="M347.727 242.034h69.211V135.128h-69.211z" fill="url(#as)"/></g></g><g clip-path="url(#at)"><g clip-path="url(#au)"><path d="M223.477 430.118h16.004v-15.847h-16.004z" fill="url(#av)"/></g></g><g clip-path="url(#aw)"><g clip-path="url(#ax)"><path d="M210.473 434.04h169.854V184.701H210.473z" fill="url(#ay)"/></g></g><g clip-path="url(#az)"><g clip-path="url(#aA)"><path d="M222.327 421.784h145.99V198.176h-145.99z" fill="url(#aB)"/></g></g><g clip-path="url(#aC)"><g clip-path="url(#aD)"><path d="M233.564 410.237h59.167v-192.86h-59.167z" fill="url(#aE)"/></g></g><g clip-path="url(#aF)"><g clip-path="url(#aG)"><path d="M213.851 447.351h23.904v-19.756h-23.904z" fill="url(#aH)"/></g></g><g clip-path="url(#aI)"><g clip-path="url(#aJ)"><path d="M173.918 480.045h95.713v-70.288h-95.713z" fill="url(#aK)"/></g></g><g clip-path="url(#aL)"><g clip-path="url(#aM)"><path d="M248.229 470.341h9.667v-7.043h-9.667z" fill="url(#aN)"/></g></g><g clip-path="url(#aO)"><g clip-path="url(#aP)"><path d="M185.561 430.537h5.171v-8.838h-5.171z" fill="url(#aQ)"/></g></g><g clip-path="url(#aR)"><g clip-path="url(#aS)"><path d="M344.628 470.217h9.666v-7.041h-9.666z" fill="url(#aT)"/></g></g><g clip-path="url(#aU)"><g clip-path="url(#aV)"><path d="M412.541 429.444h5.172v-8.837h-5.172z" fill="url(#aW)"/></g></g><g clip-path="url(#aX)"><g clip-path="url(#aY)"><path d="M151.18 551.442h27.477v-27.476H151.18z" fill="url(#aZ)"/></g></g><g clip-path="url(#aaa)"><g clip-path="url(#aab)"><path d="M362.364 447.762h24.487v-20.235h-24.487z" fill="url(#aac)"/></g></g><g clip-path="url(#aad)"><g clip-path="url(#aae)"><path d="M432.052 551.736h29.14v-29.142h-29.14z" fill="url(#aaf)"/></g></g><g clip-path="url(#aag)"><g clip-path="url(#aah)"><path d="M160.533 525.982h22.033v-13.197h-22.033z" fill="url(#aai)"/></g></g><g clip-path="url(#aaj)"><g clip-path="url(#aak)"><path d="M167.331 515.81h23.978v-14.618h-23.978z" fill="url(#aal)"/></g></g><g clip-path="url(#aam)"><g clip-path="url(#aan)"><path d="M173.795 504.851h25.486v-15.779h-25.486z" fill="url(#aao)"/></g></g><g clip-path="url(#aap)"><g clip-path="url(#aaq)"><path d="M181.486 494.296h25.787v-16.327h-25.787z" fill="url(#aar)"/></g></g><g clip-path="url(#aas)"><g clip-path="url(#aat)"><path d="M189.032 482.991h25.466v-16.493h-25.466z" fill="url(#aau)"/></g></g><g clip-path="url(#aav)"><g clip-path="url(#aaw)"><path d="M197.226 471.212h23.644v-15.661h-23.644z" fill="url(#aax)"/></g></g><g clip-path="url(#aay)"><g clip-path="url(#aaz)"><path d="M419.537 527.387h21.934v-13.132h-21.934z" fill="url(#aaA)"/></g></g><g clip-path="url(#aaB)"><g clip-path="url(#aaC)"><path d="M410.333 516.631h24.516v-14.895h-24.516z" fill="url(#aaD)"/></g></g><g clip-path="url(#aaE)"><g clip-path="url(#aaF)"><path d="M402.339 506.002h25.666V490.02h-25.666z" fill="url(#aaG)"/></g></g><g clip-path="url(#aaH)"><g clip-path="url(#aaI)"><path d="M395.17 495.354h25.842v-16.357H395.17z" fill="url(#aaJ)"/></g></g><g clip-path="url(#aaK)"><g clip-path="url(#aaL)"><path d="M387.666 483.86h25.287v-16.355h-25.287z" fill="url(#aaM)"/></g></g><g clip-path="url(#aaN)"><g clip-path="url(#aaO)"><path d="M380.924 472.65h24.038v-15.862h-24.038z" fill="url(#aaP)"/></g></g><path d="M441.827 547.44c-5.549 0-10.047-4.499-10.047-10.047 0-5.551 4.498-10.05 10.047-10.05 5.552 0 10.049 4.499 10.049 10.05 0 5.548-4.497 10.047-10.049 10.047M292.644 410.185c-6.373-2.062-13.592-6.289-21.159-10.718-11.761-6.883-23.892-13.983-36.091-15.226-.521-45.404-1.703-68.2-1.917-72.024 6.272-21.79 14.29-48.752 59.167-94.892zm3.33 4.195c18.038-3.471 41.72-26.722 63.492-26.998.555-52.453 1.978-75.542 1.978-75.542-7.233-25.133-16.731-53.61-65.47-102.232v-.388c-.065.065-.125.128-.192.194l-.193-.194v.388c-48.738 48.622-58.238 77.099-65.469 102.232 0 0 1.424 23.089 1.978 75.542 21.771.276 45.454 23.527 63.491 26.998v.081c.063-.011.129-.028.192-.041.066.013.13.03.193.041zM169.686 537.393c0 5.548-4.499 10.047-10.047 10.047-5.55 0-10.048-4.499-10.048-10.047 0-5.551 4.498-10.05 10.048-10.05 5.548 0 10.047 4.499 10.047 10.05m193.247-71.479l16.655-18.208 26.544-9.343-17.781 11.137zM212.285 449.5l-17.781-11.137 26.544 9.343 16.655 18.208zm156.299-56.776c-17.342.484-31.463 9.283-43.961 17.072-10.227 6.373-19.884 12.391-29.034 12.391-5.641 0-10.369-3.04-18.242-8.411-10.825-7.384-24.293-16.575-45.938-16.575-2.871 0-5.825.166-8.815.493V321.33c0-48.979 55.609-109.772 72.802-122.812 7.073 5.61 22.561 20.415 39.394 43.706 21.793 30.149 33.794 58.243 33.794 79.106zm-41.321 21.315c12.523-7.807 26.737-16.607 43.77-16.331l2.546.047V321.33c0-21.905-12.338-51.039-34.74-82.033-18.449-25.525-35.49-41.19-41.925-45.906l-1.426-1.046-1.46.998c-17.8 12.16-76.43 75.829-76.43 127.987v82.078l2.851-.408a77.617 77.617 0 0110.96-.804c20.104 0 32.865 8.709 43.121 15.705 8.434 5.755 13.962 9.282 21.059 9.282 10.58 0 20.826-6.387 31.674-13.144M175.716 491.72l21.037 12.358 1.444.847a340.969 340.969 0 01-7.128 9.376l-1.459-.838-19.988-11.468-1.445-.829a342.702 342.702 0 016.102-10.29zm16.132-24.02l-1.425-.876a355.009 355.009 0 017.232-9.592l1.418.892 19.669 12.377 1.41.888a355.801 355.801 0 01-6.025 10.015l-1.418-.873zm-15.251 22.607l-1.437-.845a376.623 376.623 0 016.496-10.062l1.429.858 21.412 12.871 1.431.861a381.035 381.035 0 01-6.741 9.585l-1.443-.847zm7.413-11.435l-1.429-.86c.183-.272.357-.542.542-.814 2.101-3.09 4.207-6.09 6.32-9.022l1.421.874 20.966 12.895 1.419.872a388.208 388.208 0 01-6.384 9.792l-1.428-.857zm4.56 35.916l1.46.837a324.037 324.037 0 01-7.558 9.158l-1.485-.83-17.834-9.997-1.454-.815a323.001 323.001 0 015.661-10.525l1.446.829zm-28.931 8.866c7.574 0 13.738 6.163 13.738 13.739 0 7.573-6.164 13.737-13.738 13.737-7.576 0-13.739-6.164-13.739-13.737 0-7.576 6.163-13.739 13.739-13.739m2.755-8.215l-1.454-.814c-.275.542-.559 1.083-.832 1.626a266.451 266.451 0 00-2.026 4.152c-8.684.789-15.512 8.102-15.512 16.99 0 4.197 1.53 8.04 4.053 11.016-1.003 3.028-2.251 7.005-3.201 11.283l-.455 2.054 1.737-1.185c3.593-2.451 6.786-5.058 9.22-7.104a17 17 0 005.715 1.004c9.412 0 17.068-7.658 17.068-17.068 0-1.812-.289-3.557-.815-5.198a261.7 261.7 0 002.954-3.258c.842-.948 1.672-1.911 2.506-2.873l-1.484-.831zm188.057-45.097a169.045 169.045 0 01-5.701-2.156 229.783 229.783 0 011.878-4.885l7.788 4.482zm67.065-49.571a173.782 173.782 0 01-.476 6.084l-3.799 2.38-.898-8.837c1.634.093 3.405.226 5.173.373m8.353 12.294l-33.744 21.134-40.643 26.246c-10.115-3.317-17.211-6.585-19.958-7.921 3.18-9.389 7.162-19.67 8.62-21.416.149-.015.382-.027.726-.027 3.466 0 9.577 1.3 12.213 4.891 1.496 2.033 1.747 4.686.747 7.881l-.496 1.58-5.629-3.239c.444-1.417.47-2.404.079-2.941-.783-1.063-3.055-1.957-5.269-2.375-1.304 2.915-3.159 7.747-4.928 12.708a167.722 167.722 0 0012.297 4.75l8.917-5.755-3.273-1.885 15.525-16.97 20.401-11.722-.03-.053 19.218-6.763.418 4.088 8.776-5.497c.583-5.357.832-9.852.932-13.152-4.265-.418-9.768-.885-13.594-.941-.503 1.948-.784 4.377-.122 5.709.116.23.464.929 2.721 1.237l.567 5.563-.485-.067c-3.758-.513-6.116-2.107-7.209-4.872-1.86-4.714.568-11.422 1.487-12.923.323-.074 1.164-.2 3.132-.2 5.823 0 16.149 1.082 19.927 1.502.041 3.062-.022 10.886-1.323 21.43m-38.961 3.71l-19.198 11.031-5.289-9.207 19.198-11.032zm-9.273-10.759l-14.965 8.597-3.926-5.784-9.235-13.82c5.922-2.856 12.04-4.926 18.471-5.306l5.747 9.665zm-7.551-21.382c-14.617 0-27.089 7.773-39.151 15.288-11.714 7.302-22.779 14.198-35.344 14.198-9.598 0-16.72-4.862-24.967-10.488-9.961-6.796-21.25-14.499-39.213-14.499-6.476 0-13.292.976-20.748 2.975V321.33c0-34.472 24.42-71.884 38.979-91.117 20.889-27.602 41.916-45.351 45.947-45.432 3.963.135 24.952 18.358 46 46.542 14.539 19.466 38.929 57.045 38.929 90.007v84.636c-3.476-.883-6.97-1.332-10.432-1.332m17.82-205.799a1396.985 1396.985 0 01-23.645 43.575l-7.424-9.363 33.229-53.678-35.145 51.259-6.922-8.729c7.829-11.123 15.798-22.161 23.96-33.076 13.67-18.186 27.714-36.14 42.992-53.32l2.259 1.416c-8.805 21.241-18.863 41.697-29.304 61.916m-139.249 16.538l-5.718 6.946-29.702-42.95 27.782 45.283-8.309 10.092c-6.614-11.869-13.086-23.828-19.362-35.909-10.44-20.219-20.498-40.675-29.302-61.916l2.257-1.416c15.28 17.18 29.324 35.134 42.994 53.32a1427.777 1427.777 0 0119.36 26.55m-18.026 198.773c.259-.003.524-.018.78-.018 2.826 0 5.454.22 7.94.591l-9.923 15.257-6.083-3.496 4.183-7.112zm7.121 24.453l-5.016 8.731-6.639-7.259-12.249-4.312 4.705-8.192zm18.203 24.62a219.705 219.705 0 011.88 4.885 170.455 170.455 0 01-5.701 2.158l-3.966-2.561zm-67.707-32.691l-3.799-2.38a168.437 168.437 0 01-.474-6.085c1.765-.146 3.538-.279 5.172-.373zm35.956 12.407l21.449 23.447-3.816 2.199 8.916 5.755a167.722 167.722 0 0012.297-4.75c-1.769-4.961-3.623-9.793-4.926-12.708-2.215.418-4.486 1.312-5.269 2.375-.393.537-.367 1.524.078 2.941l-4.924 2.834-.369-1.175c-1-3.195-.75-5.848.746-7.881 2.635-3.591 8.748-4.891 12.213-4.891.341 0 .576.012.726.027 1.458 1.747 5.44 12.027 8.619 21.415-2.752 1.339-9.859 4.61-19.958 7.922l-40.624-26.233-33.763-21.147c-1.3-10.544-1.365-18.368-1.324-21.43 3.779-.42 14.104-1.502 19.929-1.502 1.97 0 2.81.126 3.133.2.913 1.488 3.347 8.204 1.485 12.921-1.093 2.767-3.45 4.361-7.208 4.874l-1.328.183.577-5.679c2.259-.308 2.608-1.007 2.722-1.237.663-1.332.381-3.761-.121-5.709-3.826.056-9.33.523-13.593.941.099 3.3.348 7.795.93 13.152l8.777 5.497.444-4.371zm14.077-7.874l-5.96-3.425 10.575-16.258a49.206 49.206 0 017.133 2.201l-7.518 11.25zm190.796-.792c1.838-14.406 1.429-23.808 1.41-24.202l-.067-1.41-1.401-.166c-.582-.07-14.369-1.689-21.75-1.689h-.002c-3.769 0-4.874.42-5.506 1.144-1.465 1.675-4.606 10.136-2.283 16.341.703 1.879 2.1 4.083 4.881 5.583l-14.619 5.145-6.889-11.994-2.325 1.336-3.936-6.69-4.733-7.963c3.457.168 6.867.796 10.362 1.971l3.294 1.109V321.33c0-21.461-10.011-45.929-23.424-68.417 10.137-17.652 19.816-35.296 28.777-52.55 8.618-16.689 19.749-38.837 29.42-62.169l1.078-2.602-2.385-1.494-2.257-1.415-2.387-1.496-1.871 2.103c-16.771 18.855-31.879 38.514-43.172 53.54a1428.654 1428.654 0 00-26.895 37.23c-19.838-25.773-40.389-44.275-46.806-44.275-6.437 0-24.639 16.436-41.769 37.113a1421.02 1421.02 0 00-21.864-30.075c-11.286-15.019-26.394-34.675-43.166-53.533l-1.872-2.103-2.385 1.496-2.258 1.415-2.386 1.494 1.078 2.602c9.671 23.328 20.802 45.478 29.423 62.175a1415.307 1415.307 0 0023.585 43.469c-13.609 20.959-28.31 49.963-28.31 77.492v97.441l3.216-.963c6.293-1.887 12.243-3.045 17.765-3.478l-1.991 3.35-4.2 7.141-3.134-1.8-6.67 11.614-13.543-4.765c2.782-1.5 4.182-3.705 4.884-5.584 2.322-6.207-.82-14.668-2.285-16.341-.632-.723-1.736-1.143-5.505-1.143-7.382 0-21.17 1.619-21.753 1.689l-1.403.166-.066 1.41c-.017.394-.425 9.796 1.41 24.202l.1.781 28.57 17.894c-.792.981-1.582 1.974-2.369 2.973l1.418.891 19.465 12.25 1.411.886a318.819 318.819 0 001.763-3.122l26.759 17.28.754-.244c13.815-4.466 22.15-8.837 22.5-9.022l1.248-.659-.449-1.34c-8.004-24.011-10.254-24.657-11.102-24.9-.436-.124-1.061-.187-1.859-.187-3.567 0-11.268 1.305-14.901 6.25-1.161 1.581-1.818 3.37-1.969 5.348l-8.634-9.44 7.203-12.538-1.123-.645 4.101-6.047 7.858-11.757c5.371 2.506 10.063 5.693 14.672 8.837 8.558 5.841 16.642 11.357 27.783 11.357 13.994 0 26.191-7.601 37.986-14.951 4.242-2.644 8.539-5.32 12.937-7.643l9.476 14.177 3.785 5.579-1.9 1.093 7.702 13.409-7.838 8.569c-.151-1.978-.808-3.767-1.968-5.348-3.632-4.944-11.333-6.25-14.899-6.25-.8 0-1.427.063-1.859.187-.849.243-3.101.889-11.105 24.9l-.447 1.34 1.248.659c.35.185 8.684 4.556 22.5 9.022l.752.244 26.76-17.28c.77 1.381 1.554 2.762 2.352 4.143l1.409-.886 19.611-12.34 1.417-.891a311.125 311.125 0 00-3.103-3.905l28.57-17.893zm12.752 117.693c-8.034 0-14.569-6.536-14.569-14.569 0-8.035 6.535-14.572 14.569-14.572 8.035 0 14.571 6.537 14.571 14.572 0 8.033-6.536 14.569-14.571 14.569m12.702-4.486a16.147 16.147 0 003.535-10.083c0-8.278-6.232-15.116-14.248-16.101a261.614 261.614 0 00-2.458-5.042c-.111-.221-.228-.44-.337-.662l-1.456.816-17.24 9.663-1.484.831c.593.681 1.181 1.367 1.779 2.04a289.863 289.863 0 003.612 3.983 16.18 16.18 0 00-.64 4.472c0 8.951 7.283 16.234 16.235 16.234 1.741 0 3.414-.282 4.987-.791.162.14.32.278.484.416 2.455 2.071 5.753 4.777 9.465 7.309l1.735 1.185-.453-2.053c-.972-4.383-2.261-8.452-3.274-11.507-.079-.239-.162-.473-.242-.71m-33.321-22.689l-1.484.832a325.106 325.106 0 01-7.593-9.12l1.462-.841 19.604-11.249 1.445-.828a326.283 326.283 0 015.62 10.525l-1.455.814zm-8.665-10.448l-1.458.838a336.603 336.603 0 01-7.148-9.344l1.443-.848 20.963-12.314 1.435-.841a328.68 328.68 0 016.054 10.295l-1.444.828zm6.473-33.13l1.429-.859a368.869 368.869 0 016.454 10.066l-1.435.842-21.074 12.378-1.445.848a384.294 384.294 0 01-6.758-9.551l1.429-.86zm-15.888-22.153l1.416-.891a354.235 354.235 0 017.185 9.599l-1.421.873-20.938 12.881-1.419.872a365.957 365.957 0 01-6.047-9.979l1.411-.889zm-12.87 23.868l-1.419.872a392.626 392.626 0 006.066 9.273c.113.165.224.323.336.488l1.428-.86 21.422-12.876 1.427-.86c-.393-.586-.775-1.17-1.174-1.761a398.159 398.159 0 00-5.647-8.076l-1.422.874z" fill="#231f20"/></g></svg><svg viewBox="0 0 22 9" id="arrow" xmlns="http://www.w3.org/2000/svg"><defs><style>.bcls-1{fill:#fff;fill-rule:evenodd}</style></defs><path class="bcls-1" d="M.3 5.472h16.948l-.1 2.857a.292.292 0 000 .41l.172.172a.28.28 0 00.2.086.285.285 0 00.2-.084l4.193-4.211A.292.292 0 0022 4.5a.283.283 0 00-.084-.2L17.723.087a.289.289 0 00-.407 0l-.172.173a.287.287 0 00-.084.2.278.278 0 00.084.2l.113 2.865H.292A.3.3 0 000 3.82v1.37a.292.292 0 00.3.282z"/></svg><svg viewBox="0 0 6.1 10.97" id="arrow-insights" xmlns="http://www.w3.org/2000/svg"><defs><style>.ccls-1{fill:#262626;fill-rule:evenodd}</style></defs><path class="ccls-1" d="M.55 10.97a.53.53 0 01-.41-.19.6.6 0 01-.15-.4.631.631 0 01.17-.43l4.55-4.47L.16 1A.607.607 0 01-.01.58.629.629 0 01.14.17a.559.559 0 01.8-.02l4.98 4.9.01.01a.657.657 0 01.12.17.7.7 0 01.05.25.742.742 0 01-.05.25.61.61 0 01-.12.16c0 .01-.01.01-.01.02l-4.98 4.9a.589.589 0 01-.39.16z"/></svg><svg viewBox="0 0 178 51" id="bg-like" xmlns="http://www.w3.org/2000/svg"><defs><style>.dcls-1{fill:#fcd7b6}</style></defs><rect class="dcls-1" width="178" height="51" rx="25.5" ry="25.5"/></svg><svg viewBox="0 0 50.66 50.656" id="bg-points" xmlns="http://www.w3.org/2000/svg"><defs><style>.ecls-1{fill:#a3bbc8}</style></defs><circle class="ecls-1" cx="25.33" cy="25.328" r="25.33"/></svg><svg viewBox="0 0 50.66 50.656" id="bg-search" xmlns="http://www.w3.org/2000/svg"><defs><style>.fcls-1{fill:#a3bbc8;opacity:.2}</style></defs><circle class="fcls-1" cx="25.33" cy="25.328" r="25.33"/></svg><svg viewBox="0 0 26 28" id="calendar" xmlns="http://www.w3.org/2000/svg"><path d="M2 26h4.5v-4.5H2V26zm5.5 0h5v-4.5h-5V26zM2 20.5h4.5v-5H2v5zm5.5 0h5v-5h-5v5zm-5.5-6h4.5V10H2v4.5zM13.5 26h5v-4.5h-5V26zm-6-11.5h5V10h-5v4.5zm12 11.5H24v-4.5h-4.5V26zm-6-5.5h5v-5h-5v5zM8 7V2.5c0-.266-.234-.5-.5-.5h-1c-.266 0-.5.234-.5.5V7c0 .266.234.5.5.5h1c.266 0 .5-.234.5-.5zm11.5 13.5H24v-5h-4.5v5zm-6-6h5V10h-5v4.5zm6 0H24V10h-4.5v4.5zM20 7V2.5c0-.266-.234-.5-.5-.5h-1c-.266 0-.5.234-.5.5V7c0 .266.234.5.5.5h1c.266 0 .5-.234.5-.5zm6-1v20c0 1.094-.906 2-2 2H2c-1.094 0-2-.906-2-2V6c0-1.094.906-2 2-2h2V2.5C4 1.125 5.125 0 6.5 0h1C8.875 0 10 1.125 10 2.5V4h6V2.5C16 1.125 17.125 0 18.5 0h1C20.875 0 22 1.125 22 2.5V4h2c1.094 0 2 .906 2 2z"/></svg><svg id="hours" data-name="Группа 1" viewBox="0 0 50.875 53.13" xmlns="http://www.w3.org/2000/svg"><defs><style>.hcls-1,.hcls-2{fill:#a3bbc8;fill-rule:evenodd}.hcls-1{opacity:.34}</style></defs><path class="hcls-1" d="M263.984 1044.59a9.815 9.815 0 11-9.8 9.82 9.811 9.811 0 019.8-9.82z" transform="translate(-222.906 -1011.09)"/><path class="hcls-2" d="M268.312 1022.67a.937.937 0 00-1.592.99 22.684 22.684 0 01-32.86 30.14.938.938 0 00-1.125 1.5 24.559 24.559 0 0035.577-32.63zm-23.03 21.94h-7.55l4.743-4.75a12.68 12.68 0 003.744-9.03 5.844 5.844 0 10-11.688 0 .938.938 0 001.875 0 3.969 3.969 0 117.938 0 10.836 10.836 0 01-3.195 7.71l-6.344 6.34a.949.949 0 00-.2 1.03.93.93 0 00.866.57h9.813a.935.935 0 10-.002-1.87zm15.039-6.44h-2.6v-1.52a.938.938 0 00-1.875 0v1.52h-5.286l5.286-8.85v4.21a.938.938 0 101.875 0v-7.62a.957.957 0 00-.456-.8.94.94 0 00-1.286.33l-7.875 13.19a.933.933 0 00-.011.94.951.951 0 00.816.48h6.938v5.5a.938.938 0 001.875 0v-5.5h2.6a.94.94 0 00-.001-1.88zm5.33-22.63a.938.938 0 10-1.875.04l.042 1.75a24.556 24.556 0 00-33.549 35.85.93.93 0 00.656.27.92.92 0 00.669-.28.942.942 0 00-.013-1.33 22.679 22.679 0 0115.882-38.87 22.745 22.745 0 0115.107 5.77l-1.843.04a.935.935 0 00.022 1.87h.023l4.06-.09a.934.934 0 00.915-.96z" transform="translate(-222.906 -1011.09)"/></svg><svg id="img" data-name="Группа 3" viewBox="0 0 53.56 52.25" xmlns="http://www.w3.org/2000/svg"><defs><style>.icls-1,.icls-2{fill:#a3bbc8}.icls-1{fill-rule:evenodd}.icls-2{opacity:.34}</style></defs><path id="icredit-card" class="icls-1" d="M1444.43 1040.32a.83.83 0 00-.84.83v8.27a2.164 2.164 0 01-2.16 2.16h-39.34a2.164 2.164 0 01-2.16-2.16v-11.92h27.29a.84.84 0 100-1.68h-27.29v-5.47h9.87a.828.828 0 00.83-.83.837.837 0 00-.83-.84h-9.87v-2.88a2.166 2.166 0 012.16-2.17h25.13a.835.835 0 100-1.67h-25.13a3.839 3.839 0 00-3.83 3.84v23.62a3.837 3.837 0 003.83 3.83h39.34a3.837 3.837 0 003.83-3.83v-8.27a.828.828 0 00-.83-.83zm-17.21-11.64H1413a.837.837 0 00-.83.84.828.828 0 00.83.83h14.22a.837.837 0 00.84-.83.845.845 0 00-.84-.84zm-9.24 11.56h-14.27a.835.835 0 000 1.67h14.27a.835.835 0 100-1.67zm-6.08 3.99h-8.19a.835.835 0 000 1.67h8.19a.835.835 0 000-1.67zm34.63-13.61a.832.832 0 00.84-.84v-4.77a3.038 3.038 0 00-2.39-2.97v-6.02a6.6 6.6 0 10-13.19 0v6.02a3.053 3.053 0 00-2.4 2.97v10.75a3.045 3.045 0 003.04 3.04h11.9a3.039 3.039 0 003.04-3.04v-3.19a.835.835 0 00-1.67 0v3.19a1.379 1.379 0 01-1.37 1.37h-11.9a1.379 1.379 0 01-1.37-1.37v-10.75a1.379 1.379 0 011.37-1.37h11.9a1.379 1.379 0 011.37 1.37v4.77a.83.83 0 00.83.84zm-3.23-8.65h-9.84v-5.95a4.92 4.92 0 119.84 0v5.95zm-4.92 4.32a3.092 3.092 0 00-.83 6.07v2.04a.83.83 0 00.83.84.839.839 0 00.84-.84v-2.04a3.094 3.094 0 00-.84-6.07zm0 4.52a1.425 1.425 0 111.42-1.43 1.428 1.428 0 01-1.42 1.43z" transform="translate(-1398.25 -1009.41)"/><circle class="icls-2" cx="43.75" cy="42.45" r="9.81"/></svg><svg viewBox="0 0 17.87 15.531" id="like-icon" xmlns="http://www.w3.org/2000/svg"><defs><style>.jcls-1{fill:#243f4d;fill-rule:evenodd}</style></defs><path class="jcls-1" d="M8.94 15.526a.731.731 0 01-.28-.056C8.31 15.32.01 11.721.01 4.71A28.181 28.181 0 0013.06.003a4.817 4.817 0 014.81 4.684c0 7.034-8.29 10.634-8.65 10.783a.7.7 0 01-.28.056zM4.83 1.388a3.427 3.427 0 00-3.41 3.346c0 5.407 6.13 8.662 7.52 9.334 1.4-.672 7.52-3.93 7.52-9.358a3.406 3.406 0 00-6.81.024.709.709 0 01-.71.669.694.694 0 01-.7-.669 3.427 3.427 0 00-3.41-3.347z"/></svg><svg id="play-icon" data-name="Группа 1" viewBox="0 0 127 127" xmlns="http://www.w3.org/2000/svg"><defs><style>.kcls-1,.kcls-2{fill:#a3bbc8}.kcls-1{opacity:.4}.kcls-3{fill:#fff;fill-rule:evenodd}</style></defs><circle class="kcls-1" cx="63.5" cy="63.5" r="63.5"/><circle class="kcls-2" cx="63" cy="63" r="49"/><path id="kForm_24" data-name="Form 24" class="kcls-3" d="M970.684 3900.74l-16.044 9.8a3.228 3.228 0 01-3.062.14 2.685 2.685 0 01-1.579-2.39v-19.59a2.685 2.685 0 011.579-2.39 3.258 3.258 0 013.062.15l16.044 9.79a2.666 2.666 0 011.316 2.25 2.638 2.638 0 01-1.316 2.24z" transform="translate(-897 -3836)"/></svg><svg viewBox="0 0 20.03 20.031" id="points-icon" xmlns="http://www.w3.org/2000/svg"><defs><style>.lcls-1{fill:#fff;fill-rule:evenodd}</style></defs><path class="lcls-1" d="M2.15 4.287a2.146 2.146 0 112.14-2.145 2.145 2.145 0 01-2.14 2.145zm0 7.869a2.146 2.146 0 112.14-2.147 2.146 2.146 0 01-2.14 2.147zm0 7.868a2.146 2.146 0 112.14-2.146 2.145 2.145 0 01-2.14 2.146zm7.86-15.737a2.146 2.146 0 112.15-2.145 2.143 2.143 0 01-2.15 2.145zm0 7.869a2.146 2.146 0 112.15-2.147 2.144 2.144 0 01-2.15 2.147zm0 7.868a2.146 2.146 0 112.15-2.146 2.143 2.143 0 01-2.15 2.146zm7.87-15.737a2.146 2.146 0 112.15-2.145 2.143 2.143 0 01-2.15 2.145zm0 7.869a2.146 2.146 0 112.15-2.147 2.144 2.144 0 01-2.15 2.147zm0 7.868a2.146 2.146 0 112.15-2.146 2.143 2.143 0 01-2.15 2.146z"/></svg><svg viewBox="0 0 15.28 15.281" id="search-icon" xmlns="http://www.w3.org/2000/svg"><defs><style>.mcls-1{fill:#243f4d;fill-rule:evenodd}</style></defs><path id="micon" class="mcls-1" d="M1547.7 72.076a.617.617 0 01.75.485 2.583 2.583 0 00.78 1.489 3.036 3.036 0 001.49.777.636.636 0 01.49.743.649.649 0 01-.72.515 4.21 4.21 0 01-2.14-1.13 4.164 4.164 0 01-1.13-2.136.6.6 0 01.48-.743zm3.28-6.076a6.267 6.267 0 016.28 6.257 6.136 6.136 0 01-.57 2.6l2.34 2.036c1.7 1.746.74 3.266.29 3.717-.42.454-1.99 1.414-3.73-.292l-2.06-2.35A6.261 6.261 0 111550.98 66zm5.55 13.517a1.352 1.352 0 001.88.226 1.313 1.313 0 00-.23-1.874l-2.16-1.88a6.236 6.236 0 01-1.37 1.34zm-5.55-2.312a4.948 4.948 0 10-4.97-4.948 4.963 4.963 0 004.97 4.943z" transform="translate(-1544.72 -66)"/></svg><svg viewBox="0 0 18.94 16.969" id="shopping-icon" xmlns="http://www.w3.org/2000/svg"><defs><style>.ncls-1{fill:#243f4d;fill-rule:evenodd}</style></defs><path class="ncls-1" d="M5.53 16.978a2.074 2.074 0 110-4.147 2.056 2.056 0 011.46.6 2.03 2.03 0 01.61 1.466 2.071 2.071 0 01-2.07 2.081zm0-2.963a.889.889 0 10.34 1.71.9.9 0 00.55-.824.92.92 0 00-.26-.629.9.9 0 00-.63-.257zm8.39 2.963a2.045 2.045 0 01-1.46-.607 2.068 2.068 0 011.46-3.54 1.953 1.953 0 011.47.6 2.085 2.085 0 01-.67 3.383 2.093 2.093 0 01-.8.164zm0-2.963a.978.978 0 00-.82.548.887.887 0 001.16 1.161.891.891 0 00.29-1.452.9.9 0 00-.63-.257zm-11.27.164a.562.562 0 01-.25-.056.59.59 0 01-.29-.787 3.686 3.686 0 013.05-2.151L4.11 5.794a.591.591 0 111.16-.228l1.09 5.578h9.43l1.8-6.771H4.29A4.346 4.346 0 01.01.68.587.587 0 01.5.007a.6.6 0 01.68.5 3.159 3.159 0 003.11 2.682h14.07a.582.582 0 01.47.232.594.594 0 01.11.513l-2.13 7.956a.59.59 0 01-.57.44H5.88a.03.03 0 00-.02 0 2.66 2.66 0 00-2.68 1.51.586.586 0 01-.53.338z"/></svg><svg id="truck" data-name="Группа 2" viewBox="0 0 53.75 36.44" xmlns="http://www.w3.org/2000/svg"><defs><style>.ocls-1,.ocls-2{fill:#a3bbc8}.ocls-1{fill-rule:evenodd}.ocls-2{opacity:.34}</style></defs><path id="odelivery-truck" class="ocls-1" d="M812.816 1025.33h-6.126a.79.79 0 000 1.58h6.126a.79.79 0 000-1.58zm.524 11.01h-5.6a.785.785 0 100 1.57h5.6a.785.785 0 100-1.57zm-2.094-4.72H804.6a.79.79 0 000 1.58h6.65a.79.79 0 00-.004-1.58zm0 11.01h-.646a.785.785 0 100 1.57h.644a.785.785 0 10.002-1.57zm-3.263 0H804.6a.785.785 0 100 1.57h3.387a.785.785 0 10-.004-1.57zm36.86-19.86h-6.657v-1.42a.784.784 0 00-.786-.78h-12.175a.785.785 0 100 1.57h11.39v17.22a.786.786 0 101.571 0v-15.02h6.657a6.519 6.519 0 016.509 6.52v13.29h-2a4.974 4.974 0 00-9.824 0h-1.345v-1.12a.786.786 0 10-1.571 0v1.12h-8.336a4.974 4.974 0 00-9.823 0h-1.634v-22.01h5.261a.785.785 0 100-1.57h-6.046a.783.783 0 00-.785.78v23.59a.791.791 0 00.785.79h2.419a4.974 4.974 0 009.823 0h11.252a4.974 4.974 0 009.824 0h2.782a.791.791 0 00.785-.79v-14.08a8.094 8.094 0 00-8.076-8.09zm-21.475 25.58a3.41 3.41 0 113.4-3.41 3.411 3.411 0 01-3.4 3.41zm21.075 0a3.411 3.411 0 01-3.4-3.41 3.4 3.4 0 113.4 3.41zm.4-22.44h-4.3a.791.791 0 00-.785.79v7.39a.791.791 0 00.785.79H849a.792.792 0 00.786-.79v-3.23a4.949 4.949 0 00-4.943-4.95zm3.367 7.39h-6.882v-5.81h3.515a3.371 3.371 0 013.367 3.37v2.44zm-24.842 9.61a2.03 2.03 0 102.024 2.03 2.029 2.029 0 00-2.024-2.03zm0 2.49a.46.46 0 01-.455-.46.455.455 0 01.909 0 .46.46 0 01-.454.46zm21.075-2.49a2.03 2.03 0 102.025 2.03 2.03 2.03 0 00-2.025-2.03zm0 2.49a.46.46 0 01-.454-.46.454.454 0 01.908 0 .46.46 0 01-.454.46zm4.552-8.37a.783.783 0 00-.785.78v1.99a.786.786 0 101.571 0v-1.99a.784.784 0 00-.781-.78z" transform="translate(-803.813 -1020.56)"/><circle class="ocls-2" cx="43.938" cy="26.645" r="9.813"/></svg><svg viewBox="0 0 24 28" id="user" xmlns="http://www.w3.org/2000/svg"><path d="M18.766 12.25c2.203.641 5.234 2.812 5.234 9.922C24 25.391 21.609 28 18.672 28H5.328C2.39 28 0 25.391 0 22.172c0-7.109 3.031-9.281 5.234-9.922A7.914 7.914 0 014 8c0-4.406 3.594-8 8-8s8 3.594 8 8a7.911 7.911 0 01-1.234 4.25zM12 2C8.687 2 6 4.688 6 8s2.688 6 6 6 6-2.688 6-6-2.688-6-6-6zm6.672 24C20.5 26 22 24.297 22 22.172c0-4.922-1.656-8-4.75-8.156C15.844 15.25 14.016 16 12 16s-3.844-.75-5.25-1.984C3.656 14.172 2 17.25 2 22.172 2 24.297 3.5 26 5.328 26h13.344z"/></svg></svg>